
<svg width="119px" height="26px" viewBox="1 6 119 26" version="1.1" xmlns="http://www.w3.org/2000/svg" xmlns:xlink="http://www.w3.org/1999/xlink">
    <!-- Generator: Sketch 42 (36781) - http://www.bohemiancoding.com/sketch -->
    <desc>Created with Sketch.</desc>
    <defs></defs>
    <g id="logo-gruponews" stroke="none" stroke-width="1" fill="none" fill-rule="evenodd" transform="translate(1.000000, 6.000000)">
        <g id="Group" fill-rule="nonzero" fill="#4CA1AF">
            <g transform="translate(31.730769, 13.141026)" id="Shape">
                <path d="M0.588782051,10.8987179 L1.45064103,9.00945513 C2.36217949,9.52323718 3.27355769,9.82147436 4.45016026,9.82147436 C6.17355769,9.82147436 6.98557692,8.99278846 6.98557692,7.40192308 L6.98557692,6.97115385 C6.23990385,7.86602564 5.42772436,8.41282051 4.08541667,8.41282051 C2.01394231,8.41282051 0.141346154,6.90480769 0.141346154,4.26987179 L0.141346154,4.23669872 C0.141346154,1.58525641 2.04727564,0.0935897436 4.08541667,0.0935897436 C5.46089744,0.0935897436 6.27291667,0.673717949 6.95240385,1.41923077 L6.95240385,0.259294872 L9.47147436,0.259294872 L9.47147436,7.13653846 C9.47147436,8.7275641 9.09022436,9.8875 8.34455128,10.6333333 C7.51602564,11.461859 6.23990385,11.8264423 4.51634615,11.8264423 C3.07467949,11.8267628 1.71586538,11.4953526 0.588782051,10.8987179 Z M6.98557692,4.27003205 L6.98557692,4.23685897 C6.98557692,3.02708333 6.04086538,2.18205128 4.81458333,2.18205128 C3.58830128,2.18205128 2.66041667,3.02708333 2.66041667,4.23685897 L2.66041667,4.27003205 C2.66041667,5.4963141 3.58830128,6.32483974 4.81458333,6.32483974 C6.04086538,6.32483974 6.98557692,5.47980769 6.98557692,4.27003205 Z"></path>
                <path d="M11.1456731,0.259455128 L13.6645833,0.259455128 L13.6645833,2.04919872 C14.1783654,0.822916667 15.006891,0.0274038462 16.4983974,0.09375 L16.4983974,2.7286859 L16.3658654,2.7286859 C14.6921474,2.7286859 13.6647436,3.73958333 13.6647436,5.86073718 L13.6647436,9.14214744 L11.1458333,9.14214744 L11.1458333,0.259455128 L11.1456731,0.259455128 Z"></path>
                <path d="M17.4267628,6.0099359 L17.4267628,0.259455128 L19.9456731,0.259455128 L19.9456731,5.21458333 C19.9456731,6.40769231 20.5092949,7.02083333 21.4703526,7.02083333 C22.4315705,7.02083333 23.0447115,6.40769231 23.0447115,5.21458333 L23.0447115,0.259455128 L25.5636218,0.259455128 L25.5636218,9.14214744 L23.0447115,9.14214744 L23.0447115,7.88269231 C22.4647436,8.62836538 21.7190705,9.30785256 20.4429487,9.30785256 C18.5370192,9.30769231 17.4267628,8.04823718 17.4267628,6.0099359 Z"></path>
                <path d="M27.2375,0.259455128 L29.7564103,0.259455128 L29.7564103,1.53557692 C30.3695513,0.706891026 31.2147436,0.09375 32.5240385,0.09375 C34.5955128,0.09375 36.5674679,1.71778846 36.5674679,4.68429487 L36.5674679,4.71730769 C36.5674679,7.6838141 34.6285256,9.30785256 32.5240385,9.30785256 C31.1817308,9.30785256 30.3530449,8.69471154 29.7564103,7.98221154 L29.7564103,11.79375 L27.2375,11.79375 L27.2375,0.259455128 Z M34.0485577,4.71730769 L34.0485577,4.68429487 C34.0485577,3.20929487 33.0541667,2.23157051 31.8775641,2.23157051 C30.7009615,2.23157051 29.7232372,3.20929487 29.7232372,4.68429487 L29.7232372,4.71730769 C29.7232372,6.19230769 30.7011218,7.17003205 31.8775641,7.17003205 C33.0540064,7.17003205 34.0485577,6.2088141 34.0485577,4.71730769 Z"></path>
                <path d="M37.413141,4.75048077 L37.413141,4.71730769 C37.413141,2.16538462 39.468109,0.09375 42.2357372,0.09375 C44.9865385,0.09375 47.025,2.13221154 47.025,4.68429487 L47.025,4.71730769 C47.025,7.26955128 44.9701923,9.34102564 42.2025641,9.34102564 C39.4514423,9.34086538 37.413141,7.30272436 37.413141,4.75048077 Z M44.5389423,4.75048077 L44.5389423,4.71730769 C44.5389423,3.40833333 43.594391,2.26474359 42.2024038,2.26474359 C40.7605769,2.26474359 39.8988782,3.37516026 39.8988782,4.68429487 L39.8988782,4.71730769 C39.8988782,6.02660256 40.8435897,7.17003205 42.2355769,7.17003205 C43.6772436,7.16987179 44.5389423,6.05977564 44.5389423,4.75048077 Z"></path>
                <path d="M48.7059295,0.560737179 L49.5304487,0.560737179 L49.5304487,2.15913462 C50.1025641,1.14967949 51.0616987,0.358814103 52.6264423,0.358814103 C54.7971154,0.358814103 56.0589744,1.83958333 56.0589744,3.89214744 L56.0589744,9.14214744 L55.2344551,9.14214744 L55.2344551,4.04375 C55.2344551,2.27708333 54.2418269,1.11586538 52.5084936,1.11586538 C50.8259615,1.11586538 49.5302885,2.39471154 49.5302885,4.17820513 L49.5302885,9.14214744 L48.7057692,9.14214744 L48.7057692,0.560737179 L48.7059295,0.560737179 Z"></path>
                <path d="M57.8429487,4.86810897 L57.8429487,4.83461538 C57.8429487,2.34423077 59.5929487,0.358814103 61.9149038,0.358814103 C64.3209936,0.358814103 65.8520833,2.31057692 65.8520833,4.85144231 C65.8520833,5.00272436 65.8520833,5.05336538 65.8354167,5.18814103 L58.7179487,5.18814103 C58.8692308,7.325 60.4004808,8.57019231 62.0831731,8.57019231 C63.4125,8.57019231 64.3209936,7.98125 65.0277244,7.22403846 L65.5998397,7.72884615 C64.7248397,8.67115385 63.6983974,9.34423077 62.0495192,9.34423077 C59.7948718,9.34407051 57.8429487,7.54358974 57.8429487,4.86810897 Z M64.9604167,4.4474359 C64.8426282,2.71442308 63.8498397,1.11586538 61.88125,1.11586538 C60.181891,1.11586538 58.8692308,2.5463141 58.7179487,4.4474359 L64.9604167,4.4474359 Z"></path>
                <polygon points="66.5088141 0.560737179 67.4342949 0.560737179 70.0254808 8.09903846 72.6166667 0.527083333 73.2730769 0.527083333 75.8642628 8.09903846 78.4554487 0.560737179 79.3472756 0.560737179 76.200641 9.20945513 75.4940705 9.20945513 72.9363782 1.85625 70.3620192 9.20945513 69.6554487 9.20945513"></polygon>
                <path d="M80.1552885,8.0650641 L80.6432692,7.40897436 C81.5855769,8.13237179 82.6288462,8.53621795 83.7225962,8.53621795 C84.8834936,8.53621795 85.7921474,7.89695513 85.7921474,6.90400641 L85.7921474,6.87035256 C85.7921474,5.86073718 84.7152244,5.49054487 83.5205128,5.15400641 C82.1240385,4.75016026 80.5759615,4.32948718 80.5759615,2.79839744 L80.5759615,2.76474359 C80.5759615,1.38509615 81.7370192,0.392307692 83.4028846,0.392307692 C84.4291667,0.392307692 85.5902244,0.762339744 86.4483974,1.33445513 L86.0110577,2.02435897 C85.2200321,1.50288462 84.2780449,1.16634615 83.369391,1.16634615 C82.1915064,1.16634615 81.4174679,1.80560897 81.4174679,2.66394231 L81.4174679,2.69759615 C81.4174679,3.65673077 82.5785256,4.0099359 83.8067308,4.36346154 C85.1863782,4.75048077 86.6336538,5.25528846 86.6336538,6.76971154 L86.6336538,6.80336538 C86.6336538,8.33445513 85.3213141,9.31041667 83.6722756,9.31041667 C82.4269231,9.31025641 81.0639423,8.80544872 80.1552885,8.0650641 Z"></path>
            </g>
            <path d="M17.5288462,20.1423077 L17.2350962,20.1423077 L17.2349359,24.6636218 C17.2349359,24.7641026 17.2059295,24.8570513 17.1588141,24.9384615 L17.6073718,24.9384615 C17.5602564,24.8570513 17.53125,24.7641026 17.53125,24.6636218 L17.5288462,20.1423077 Z M21.0620192,22.9924679 L20.8820513,22.9918269 L20.881891,24.8915064 C20.881891,24.9075321 20.8794872,24.9230769 20.8772436,24.9384615 L21.0677885,24.9384615 C21.0653846,24.9230769 21.063141,24.9075321 21.063141,24.8915064 L21.0620192,22.9924679 Z M16.1341346,17.0235577 L15.8270833,17.0235577 L15.8270833,19.8086538 C15.8270833,19.9592949 15.7049679,20.08125 15.5546474,20.08125 C15.4147436,20.08125 15.300641,19.9751603 15.2850962,19.8392628 C15.2684295,19.8152244 15.2543269,19.7886218 15.2458333,19.7584936 L14.5048077,17.1096154 L14.1988782,17.1096154 L14.7512821,21.2394231 L14.0939103,21.2378205 L14.0939103,24.6636218 C14.0939103,24.7641026 14.0649038,24.8570513 14.0177885,24.9384615 L16.2100962,24.9384615 C16.1629808,24.8570513 16.1339744,24.7641026 16.1339744,24.6636218 L16.1339744,17.0235577 L16.1341346,17.0235577 Z M8.61442308,22.4022436 L8.45144231,22.4022436 L8.45144231,24.9091346 C8.45144231,24.9190705 8.44935897,24.9285256 8.44839744,24.9386218 L8.61858974,24.9386218 C8.61762821,24.9286859 8.61554487,24.9192308 8.61554487,24.9091346 L8.61442308,22.4022436 Z M12.9908654,21.2378205 L12.6661859,21.2371795 L12.6660256,24.6636218 C12.6660256,24.7641026 12.6370192,24.8570513 12.5899038,24.9384615 L13.0690705,24.9384615 C13.0219551,24.8570513 12.9929487,24.7641026 12.9929487,24.6636218 L12.9908654,21.2378205 Z M29.3200321,10.9046474 L24.0166667,6.85144231 L24.0166667,4.01554487 C24.0166667,3.34070513 23.4695513,2.79375 22.7950321,2.79391026 L22.3296474,2.79375 C21.6549679,2.79391026 21.1078526,3.34070513 21.1078526,4.01554487 L21.1078526,4.62852564 L15.8583333,0.616346154 L15.75625,0.514262821 C15.5137821,0.271634615 15.1945513,0.153205128 14.8767628,0.157211538 C14.5588141,0.153205128 14.2395833,0.271634615 13.9971154,0.514262821 L13.8945513,0.616826923 L0.433173077,10.9046474 C-0.0439102564,11.381891 -0.0439102564,12.1552885 0.433173077,12.6323718 L0.762339744,12.9615385 C1.23942308,13.4386218 2.01314103,13.4386218 2.4900641,12.9615385 L3.77323718,11.9809295 L3.77323718,23.0155449 C3.77323718,24.0775641 4.63429487,24.9386218 5.6963141,24.9386218 L7.84423077,24.9386218 C7.84326923,24.9286859 7.8411859,24.9192308 7.8411859,24.9091346 L7.8411859,20.6729167 L7.67115385,20.6729167 L7.67115385,22.2173077 C7.67115385,22.3008013 7.60336538,22.3684295 7.52003205,22.3684295 C7.43669872,22.3684295 7.36891026,22.3008013 7.36891026,22.2173077 L7.36891026,20.2974359 C7.37483974,19.8278846 7.89711538,19.8278846 7.89711538,19.8278846 L9.20897436,19.8278846 C9.68814103,19.8711538 9.69919872,20.2857372 9.69919872,20.2857372 L9.70064103,22.2166667 C9.70064103,22.3 9.63301282,22.3677885 9.54951923,22.3677885 C9.46602564,22.3677885 9.39855769,22.2998397 9.39855769,22.2166667 L9.39695513,20.6729167 L9.22676282,20.6729167 L9.22676282,24.9091346 C9.22676282,24.9190705 9.22467949,24.9285256 9.22371795,24.9386218 L11.6416667,24.9386218 C11.5945513,24.8572115 11.5655449,24.7642628 11.5655449,24.6637821 L11.5655449,21.2379808 L10.8669872,21.2379808 L11.4626603,17.1073718 L11.155609,17.1073718 L11.1543269,17.1086538 L10.4126603,19.7588141 C10.3719551,19.9036859 10.2216346,19.9883013 10.0766026,19.9479167 C9.93173077,19.9072115 9.84695513,19.7570513 9.8875,19.6116987 L10.6017628,17.0932692 L10.7871795,16.4541667 C10.7871795,16.4541667 11.0737179,15.4758013 11.7655449,15.4758013 L13.9224359,15.4758013 C13.9224359,15.4758013 14.6052885,15.4376603 14.8288462,16.2461538 L15.2820513,17.8653846 L15.2820513,16.3463141 C15.2926282,15.499359 16.2347756,15.499359 16.2347756,15.499359 L18.600641,15.499359 C19.4650641,15.5772436 19.4846154,16.325 19.4846154,16.325 L19.4875,19.8076923 C19.4875,19.9581731 19.3653846,20.0802885 19.2149038,20.0802885 C19.0644231,20.0802885 18.9423077,19.9581731 18.9423077,19.8076923 L18.9395833,17.0238782 L18.6325321,17.0238782 L18.6325321,24.6639423 C18.6325321,24.7644231 18.6035256,24.8573718 18.5564103,24.9387821 L20.2762821,24.9387821 C20.2738782,24.9233974 20.2716346,24.9078526 20.2716346,24.8918269 L20.2716346,22.9927885 L19.8842949,22.9927885 L20.2147436,20.7025641 L20.0445513,20.7025641 L20.04375,20.7032051 L19.6326923,22.1724359 C19.6100962,22.2528846 19.5267628,22.2998397 19.4464744,22.2772436 C19.3660256,22.2546474 19.3190705,22.1714744 19.3416667,22.0910256 L19.7376603,20.6947115 L19.8407051,20.3403846 C19.8407051,20.3403846 19.999359,19.7979167 20.3830128,19.7979167 L21.5788462,19.7979167 C21.5788462,19.7979167 21.9573718,19.7766026 22.0814103,20.2248397 L22.6038462,22.0910256 C22.6262821,22.1714744 22.5793269,22.2546474 22.4990385,22.2772436 C22.4185897,22.2998397 22.3352564,22.2528846 22.3128205,22.1724359 L21.9020833,20.7038462 L21.7323718,20.7038462 L22.0386218,22.9934295 L21.6741987,22.9927885 L21.6741987,24.8918269 C21.6741987,24.9078526 21.6717949,24.9233974 21.6695513,24.9387821 L24.0578526,24.9387821 C25.1200321,24.9387821 25.9809295,24.0777244 25.9809295,23.0157051 L25.9809295,11.980609 L27.2642628,12.9613782 C27.7413462,13.4384615 28.5150641,13.4384615 28.9918269,12.9613782 L29.3209936,12.6322115 C29.7971154,12.1552885 29.7972756,11.3817308 29.3200321,10.9046474 Z M8.53958333,19.7338141 C8.24455128,19.7338141 8.00544872,19.4947115 8.00544872,19.1998397 C8.00544872,18.9046474 8.24455128,18.6655449 8.53958333,18.6655449 C8.83461538,18.6655449 9.07371795,18.9046474 9.07371795,19.1998397 C9.07371795,19.4947115 8.83461538,19.7338141 8.53958333,19.7338141 Z M12.8290064,15.3333333 C12.2971154,15.3333333 11.8657051,14.9020833 11.8657051,14.3701923 C11.8657051,13.838141 12.2969551,13.4067308 12.8290064,13.4067308 C13.3610577,13.4067308 13.7924679,13.8379808 13.7924679,14.3701923 C13.7923077,14.9020833 13.3610577,15.3333333 12.8290064,15.3333333 Z M17.39375,15.3296474 C16.861859,15.3296474 16.4304487,14.8983974 16.4304487,14.3665064 C16.4304487,13.8344551 16.8616987,13.4030449 17.39375,13.4030449 C17.9258013,13.4030449 18.3570513,13.8342949 18.3570513,14.3665064 C18.3570513,14.8982372 17.9258013,15.3296474 17.39375,15.3296474 Z M21.6352564,19.6125 C21.5528846,19.5583333 21.4923077,19.4883013 21.4477564,19.4233974 C21.3599359,19.5980769 21.1810897,19.7189103 20.9722756,19.7189103 C20.7604167,19.7189103 20.5790064,19.5947115 20.4926282,19.4155449 C20.4477564,19.4825321 20.3854167,19.5560897 20.2998397,19.6125 C20.1153846,19.7342949 20.0213141,19.5852564 20.0213141,19.5852564 C20.0213141,19.5852564 20.1546474,19.624359 20.2096154,19.4910256 C20.2637821,19.3592949 20.1655449,18.9551282 20.4698718,19.0108974 C20.5423077,18.8017628 20.7387821,18.6509615 20.9722756,18.6509615 C21.2054487,18.6509615 21.4017628,18.8012821 21.4745192,19.0096154 C21.7673077,18.9639423 21.6717949,19.3604167 21.725641,19.4910256 C21.7804487,19.624359 21.9139423,19.5852564 21.9139423,19.5852564 C21.9139423,19.5852564 21.8195513,19.7341346 21.6352564,19.6125 Z" id="Shape"></path>
        </g>
    </g>
</svg>
